<svg width="42" height="33" viewBox="0 0 42 33" fill="none" xmlns="http://www.w3.org/2000/svg">
<path d="M41.4499 11.6231C41.4277 11.4568 41.3468 11.3033 41.2212 11.1894L29.8177 0.659727C29.71 0.558658 29.5735 0.492228 29.4263 0.469319C29.2792 0.446411 29.1284 0.468129 28.9942 0.531542C28.8599 0.594955 28.7486 0.697049 28.6751 0.824194C28.6016 0.951339 28.5694 1.09746 28.5828 1.24304L29.0096 6.85186L20.9753 6.83694C20.8782 6.83542 20.7818 6.85286 20.6917 6.88826C20.6015 6.92366 20.5195 6.9763 20.4503 7.04312C20.3811 7.10993 20.3261 7.18958 20.2886 7.27743C20.2511 7.36529 20.2318 7.45958 20.2318 7.55483C20.2318 7.65009 20.2511 7.74438 20.2886 7.83224C20.3261 7.92009 20.3811 7.99977 20.4503 8.06658C20.5195 8.1334 20.6015 8.18604 20.6917 8.22144C20.7818 8.25683 20.8782 8.27428 20.9753 8.27276L29.7872 8.2876C29.8872 8.28778 29.9863 8.2678 30.0782 8.22894C30.1701 8.19009 30.2529 8.13317 30.3215 8.06167C30.3901 7.99018 30.443 7.90565 30.4769 7.81331C30.5109 7.72096 30.5252 7.62276 30.5189 7.52478L30.1836 2.96297L39.6967 11.7426L30.7476 21.0309L30.8239 17.0672C30.8259 16.9704 30.808 16.8742 30.7712 16.7844C30.7344 16.6946 30.6794 16.613 30.6096 16.5445C30.5399 16.4761 30.4567 16.4221 30.3651 16.386C30.2736 16.3499 30.1755 16.3324 30.0768 16.3344L12.8495 16.5288L12.4226 10.8303C12.4144 10.69 12.3643 10.5551 12.2786 10.4424C12.193 10.3298 12.0755 10.2442 11.9408 10.1965C11.806 10.1487 11.66 10.1408 11.5207 10.1737C11.3814 10.2066 11.255 10.2789 11.1572 10.3816L0.683674 21.2702C0.617407 21.3388 0.565609 21.4196 0.531252 21.508C0.496895 21.5963 0.480655 21.6904 0.483466 21.7849C0.486276 21.8794 0.508081 21.9724 0.547629 22.0586C0.587176 22.1448 0.643688 22.2225 0.713921 22.2873L12.1175 32.8169C12.224 32.9104 12.356 32.9714 12.4974 32.9921C12.6388 33.0129 12.7832 32.9926 12.913 32.9337C13.0427 32.8749 13.152 32.78 13.2274 32.6609C13.3029 32.5417 13.3411 32.4036 13.3374 32.2634L13.1849 26.8789L21.5394 26.6248C21.6357 26.6231 21.7306 26.6027 21.8189 26.565C21.9071 26.5272 21.9869 26.4727 22.0537 26.4046C22.1204 26.3365 22.1728 26.2562 22.2079 26.1683C22.2429 26.0803 22.26 25.9864 22.258 25.8919C22.256 25.7975 22.235 25.7044 22.1963 25.6179C22.1576 25.5314 22.1018 25.4533 22.0323 25.388C21.9627 25.3227 21.8807 25.2715 21.7909 25.2373C21.7012 25.2031 21.6054 25.1867 21.5091 25.1889L12.4077 25.4581C12.2163 25.4659 12.0356 25.547 11.9045 25.684C11.7733 25.821 11.7022 26.003 11.7063 26.1909L11.8436 30.6033L2.23895 21.7338L11.0813 12.5503L11.432 17.3215C11.4475 17.504 11.5334 17.6737 11.6723 17.7961C11.8111 17.9184 11.9924 17.9841 12.179 17.9796L29.3453 17.7852L29.2386 22.8705C29.2351 23.0158 29.2766 23.1588 29.3577 23.2805C29.4388 23.4021 29.5557 23.4968 29.6928 23.5519C29.8299 23.607 29.9808 23.62 30.1256 23.5891C30.2704 23.5583 30.4023 23.485 30.5037 23.379L41.2517 12.2063C41.3267 12.1295 41.3834 12.0374 41.4177 11.9365C41.452 11.8356 41.463 11.7285 41.4499 11.623V11.6231Z" fill="white"/>
</svg>
