<svg width="36" height="39" viewBox="0 0 36 39" fill="none" xmlns="http://www.w3.org/2000/svg">
<path d="M34.4874 25.9651C33.9852 25.5321 33.3218 25.3523 32.6821 25.4662L19.2425 27.8595L15.4252 23.9506C15.2985 23.8201 15.1263 23.7473 14.9461 23.7473H8.16939C8.16939 23.3642 7.86647 23.0533 7.49172 23.0533H4.78104H0.0373535V24.4412H4.10337V34.1563H0.0373535V35.5442H4.78104H7.49172C7.86647 35.5442 8.16939 35.2333 8.16939 34.8502H10.0425L17.2874 38.56C17.6012 38.7203 17.94 38.8008 18.2789 38.8001C18.6638 38.8001 19.0494 38.6967 19.3943 38.4906L34.1784 29.6596C34.8554 29.2543 35.2762 28.5035 35.2762 27.7006C35.2762 27.0296 34.9882 26.3967 34.4874 25.9651ZM6.81405 34.1563H5.45871V24.4412H6.81405V34.1563ZM33.4946 28.4612L18.7112 37.2915C18.4605 37.4414 18.1549 37.4518 17.894 37.3185L10.506 33.5359C10.4118 33.4873 10.3074 33.4624 10.2024 33.4624H8.16939V25.1351H14.6655L20.0049 30.602C20.2387 30.8421 20.3674 31.1606 20.3674 31.4992C20.3674 32.1994 19.8118 32.7684 19.1287 32.7684C18.8027 32.7684 18.4835 32.6331 18.2524 32.3965L14.7475 28.8081L13.7893 29.7894L17.2942 33.3777C17.7842 33.8801 18.4347 34.1563 19.1287 34.1563C20.5586 34.1563 21.7228 32.9648 21.7228 31.4992C21.7228 30.79 21.4531 30.1231 20.9631 29.6207L20.4149 29.0593L32.9138 26.8332C33.1659 26.7881 33.42 26.8596 33.6145 27.0268C33.809 27.1947 33.9208 27.4404 33.9208 27.7006C33.9208 28.0122 33.7575 28.3036 33.4946 28.4612Z" fill="white"/>
<path d="M23.2541 7.3214L16.4772 14.9542L17.4805 15.8883L24.2574 8.25548L23.2541 7.3214Z" fill="white"/>
<path d="M17.6568 11.6033C18.7777 11.6033 19.6898 10.6693 19.6898 9.5215C19.6898 8.37373 18.7777 7.4397 17.6568 7.4397C16.5359 7.4397 15.6238 8.37373 15.6238 9.5215C15.6238 10.6693 16.5359 11.6033 17.6568 11.6033ZM17.6568 8.82756C18.0309 8.82756 18.3345 9.13914 18.3345 9.5215C18.3345 9.90386 18.0309 10.2154 17.6568 10.2154C17.2827 10.2154 16.9791 9.90386 16.9791 9.5215C16.9791 9.13914 17.2827 8.82756 17.6568 8.82756Z" fill="white"/>
<path d="M21.045 13.6851C21.045 14.8328 21.9572 15.7669 23.0781 15.7669C24.1989 15.7669 25.1111 14.8328 25.1111 13.6851C25.1111 12.5373 24.1989 11.6033 23.0781 11.6033C21.9572 11.6033 21.045 12.5373 21.045 13.6851ZM23.7557 13.6851C23.7557 14.0674 23.4521 14.379 23.0781 14.379C22.704 14.379 22.4004 14.0674 22.4004 13.6851C22.4004 13.3027 22.704 12.9911 23.0781 12.9911C23.4521 12.9911 23.7557 13.3027 23.7557 13.6851Z" fill="white"/>
<path d="M19.8756 26.3064C20.0044 26.4445 20.182 26.5229 20.3676 26.5229C20.5533 26.5229 20.7309 26.4445 20.8596 26.3064L31.6061 14.7122C34.6841 11.391 34.6841 5.98735 31.6061 2.66687C30.1037 1.04584 28.1039 0.153442 25.9747 0.153442C23.8563 0.153442 21.8666 1.03613 20.3676 2.6405C18.8686 1.03613 16.879 0.153442 14.7606 0.153442C12.6314 0.153442 10.6316 1.04584 9.12916 2.66687C6.05118 5.98804 6.05118 11.3917 9.12916 14.7122L19.8756 26.3064ZM10.1125 3.62242C11.356 2.28035 13.0068 1.54131 14.7606 1.54131C16.5151 1.54131 18.1652 2.28035 19.4087 3.62242L19.8756 4.12691C20.1325 4.4024 20.6021 4.4024 20.8589 4.12691L21.3259 3.62242C22.5701 2.28035 24.2209 1.54131 25.9747 1.54131C27.7285 1.54131 29.3786 2.28035 30.6221 3.62242C33.2122 6.4162 33.2122 10.9629 30.6221 13.7566L20.3676 24.8207L10.1125 13.7566C7.52241 10.9629 7.52241 6.4162 10.1125 3.62242Z" fill="white"/>
<path d="M18.3343 16.8077H16.979V18.1956H18.3343V16.8077Z" fill="white"/>
<path d="M21.0449 16.8077H19.6896V18.1956H21.0449V16.8077Z" fill="white"/>
<path d="M23.7556 16.8077H22.4003V18.1956H23.7556V16.8077Z" fill="white"/>
</svg>
