<svg width="39" height="44" viewBox="0 0 39 44" fill="none" xmlns="http://www.w3.org/2000/svg">
<g clip-path="url(#clip0)">
<path d="M19.9022 7.45688C29.1207 7.45688 36.6202 15.1456 36.6202 24.5956C36.6202 34.0461 29.1202 41.7343 19.9022 41.7343C10.6838 41.7343 3.18434 34.0456 3.18434 24.5956C3.18434 15.1456 10.6838 7.45688 19.9022 7.45688ZM19.9022 5.84778C9.80232 5.84778 1.61475 14.2414 1.61475 24.5956C1.61475 34.9498 9.80232 43.3434 19.9022 43.3434C30.0022 43.3434 38.1897 34.9498 38.1897 24.5956C38.1897 14.242 30.0022 5.84778 19.9022 5.84778Z" fill="white"/>
<path d="M19.9023 13.3599C25.9455 13.3599 30.8623 18.4004 30.8623 24.5958C30.8623 30.7911 25.9455 35.8316 19.9023 35.8316C13.8591 35.8316 8.94234 30.7911 8.94234 24.5958C8.94234 18.4004 13.8591 13.3599 19.9023 13.3599ZM19.9023 11.7401C12.9766 11.7401 7.3623 17.4957 7.3623 24.5958C7.3623 31.6958 12.9766 37.4514 19.9023 37.4514C26.828 37.4514 32.4423 31.6958 32.4423 24.5958C32.4423 17.4962 26.828 11.7401 19.9023 11.7401Z" fill="white"/>
<path d="M24.1836 2.11118V2.93073H15.6208V2.11118H24.1836ZM24.2787 0.406738H15.5258C14.6636 0.406738 13.9583 1.12987 13.9583 2.01369V3.02822C13.9583 3.91204 14.6636 4.63517 15.5258 4.63517H24.2782C25.1403 4.63517 25.8457 3.91204 25.8457 3.02822V2.01369C25.8462 1.12987 25.1408 0.406738 24.2787 0.406738Z" fill="white"/>
<path d="M19.9022 23.5243C20.4785 23.5243 20.9472 24.0048 20.9472 24.5956C20.9472 25.1864 20.4785 25.6669 19.9022 25.6669C19.3259 25.6669 18.8572 25.1864 18.8572 24.5956C18.8572 24.0048 19.3259 23.5243 19.9022 23.5243ZM19.9022 21.9174C18.459 21.9174 17.2897 23.1167 17.2897 24.5956C17.2897 26.0751 18.459 27.2739 19.9022 27.2739C21.3448 27.2739 22.5147 26.0751 22.5147 24.5956C22.5147 23.1167 21.3448 21.9174 19.9022 21.9174Z" fill="white"/>
<path d="M19.9023 23.3337C19.3761 23.3337 18.9456 22.8923 18.9456 22.3529V15.9079C18.9456 15.3685 19.3761 14.9271 19.9023 14.9271C20.4284 14.9271 20.8589 15.3685 20.8589 15.9079V22.3523C20.8589 22.8923 20.4284 23.3337 19.9023 23.3337Z" fill="white"/>
<path d="M20.8746 24.5936C20.8746 24.0542 21.3052 23.6128 21.8313 23.6128H25.1429C25.6691 23.6128 26.0996 24.0542 26.0996 24.5936C26.0996 25.133 25.6691 25.5743 25.1429 25.5743H21.8313C21.3052 25.5743 20.8746 25.133 20.8746 24.5936Z" fill="white"/>
</g>
<defs>
<clipPath id="clip0">
<rect width="38" height="44" fill="white" transform="translate(0.969116)"/>
</clipPath>
</defs>
</svg>
