<svg width="38" height="38" viewBox="0 0 38 38" fill="none" xmlns="http://www.w3.org/2000/svg">
<circle cx="19" cy="19" r="17.5" fill="url(#paint0_linear)" stroke="white" stroke-width="3"/>
<path d="M23.5879 26H14.2627V23.7148L17.4004 20.542C18.2969 19.6045 18.8828 18.9658 19.1582 18.626C19.4336 18.2803 19.624 17.9844 19.7295 17.7383C19.8408 17.4922 19.8965 17.2344 19.8965 16.9648C19.8965 16.6309 19.7881 16.3672 19.5713 16.1738C19.3545 15.9805 19.0498 15.8838 18.6572 15.8838C18.2529 15.8838 17.8428 16.001 17.4268 16.2354C17.0166 16.4639 16.5508 16.8037 16.0293 17.2549L14.1221 15.0225C14.7842 14.4307 15.3408 14.0088 15.792 13.7568C16.2432 13.499 16.7324 13.3027 17.2598 13.168C17.793 13.0332 18.3906 12.9658 19.0527 12.9658C19.8848 12.9658 20.626 13.1123 21.2764 13.4053C21.9326 13.6982 22.4395 14.1172 22.7969 14.6621C23.1602 15.2012 23.3418 15.8076 23.3418 16.4814C23.3418 16.9854 23.2773 17.4512 23.1484 17.8789C23.0254 18.3066 22.832 18.7285 22.5684 19.1445C22.3047 19.5547 21.9531 19.9883 21.5137 20.4453C21.0801 20.9023 20.1514 21.7695 18.7275 23.0469V23.1348H23.5879V26Z" fill="white"/>
<defs>
<linearGradient id="paint0_linear" x1="10" y1="6" x2="26.5" y2="33" gradientUnits="userSpaceOnUse">
<stop stop-color="#F75539"/>
<stop offset="1" stop-color="#EF9B51"/>
</linearGradient>
</defs>
</svg>
