<svg width="100" height="100" viewBox="0 0 100 100" fill="none" xmlns="http://www.w3.org/2000/svg">
<circle cx="50" cy="50" r="50" fill="url(#paint0_linear)"/>
<path d="M38.4246 39.3353H57.7582C58.2591 39.3353 58.6097 38.9275 58.6097 38.4688C58.6097 38.0101 58.209 37.6023 57.7582 37.6023H38.4246C37.9238 37.6023 37.5732 38.0101 37.5732 38.4688C37.5732 38.9275 37.9738 39.3353 38.4246 39.3353Z" fill="white"/>
<path d="M38.4246 47.2865H57.7582C58.2591 47.2865 58.6097 46.8787 58.6097 46.42C58.6097 45.9103 58.209 45.5535 57.7582 45.5535H38.4246C37.9238 45.5535 37.5732 45.9613 37.5732 46.42C37.5732 46.8787 37.9738 47.2865 38.4246 47.2865Z" fill="white"/>
<path d="M38.4246 55.2886H57.7582C58.2591 55.2886 58.6097 54.8809 58.6097 54.4221C58.6097 53.9634 58.209 53.5557 57.7582 53.5557H38.4246C37.9238 53.5557 37.5732 53.9634 37.5732 54.4221C37.5732 54.8809 37.9738 55.2886 38.4246 55.2886Z" fill="white"/>
<path d="M51.3471 61.5068H38.4246C37.9238 61.5068 37.5732 61.9146 37.5732 62.3733C37.5732 62.832 37.9738 63.2398 38.4246 63.2398H51.3471C51.8479 63.2398 52.1985 62.832 52.1985 62.3733C52.1985 61.9146 51.8479 61.5068 51.3471 61.5068Z" fill="white"/>
<path d="M76.2404 48.6626L73.9364 46.3181C73.1851 45.5535 71.983 45.5535 71.2317 46.3181L66.9743 50.6504V28.6319C66.9743 28.1222 66.5736 27.7654 66.1228 27.7654H30.0602C29.5593 27.7654 29.2087 28.1731 29.2087 28.6319V72.1593C29.2087 72.669 29.6094 73.0258 30.0602 73.0258H66.0727C66.5736 73.0258 66.9242 72.618 66.9242 72.1593V60.7932L76.1903 51.364C76.9917 50.5994 76.9917 49.3762 76.2404 48.6626ZM57.2574 63.0359L59.8118 65.5843L59.7618 65.6353L56.3558 66.5017L57.2574 63.0359ZM61.0139 64.361L58.4595 61.7616L69.8292 50.1917L72.3837 52.7911L61.0139 64.361ZM65.2212 71.2418H30.9618V29.5493H65.2713V52.3834L56.0052 61.7616C55.7548 62.0165 55.6045 62.2713 55.5044 62.6281L54.6028 66.094C54.4525 66.7056 54.6028 67.3682 55.0536 67.8269C55.4042 68.1837 55.855 68.3366 56.3058 68.3366C56.456 68.3366 56.6063 68.3366 56.7565 68.2856L60.1625 67.3682C60.463 67.2663 60.7635 67.1134 61.0139 66.8585L65.2713 62.5262V71.2418H65.2212ZM74.9882 50.1407L73.6358 51.5169L71.0814 48.9175L72.4338 47.5413C72.4838 47.4903 72.4838 47.4903 72.5339 47.4903C72.584 47.4903 72.6341 47.4903 72.6341 47.5413L74.9381 49.8859C75.0383 49.9368 75.0383 50.0898 74.9882 50.1407Z" fill="white"/>
<defs>
<linearGradient id="paint0_linear" x1="19.5" y1="10" x2="76.5" y2="92" gradientUnits="userSpaceOnUse">
<stop stop-color="#F75539"/>
<stop offset="1" stop-color="#EF9B51"/>
</linearGradient>
</defs>
</svg>
