<svg width="114" height="112" viewBox="0 0 114 112" fill="none" xmlns="http://www.w3.org/2000/svg">
<circle cx="50" cy="62" r="50" fill="url(#paint0_linear)"/>
<path d="M38.4246 51.3353H57.7582C58.259 51.3353 58.6096 50.9275 58.6096 50.4688C58.6096 50.0101 58.2089 49.6023 57.7582 49.6023H38.4246C37.9237 49.6023 37.5731 50.0101 37.5731 50.4688C37.5731 50.9275 37.9738 51.3353 38.4246 51.3353Z" fill="white"/>
<path d="M38.4246 59.2865H57.7582C58.259 59.2865 58.6096 58.8787 58.6096 58.42C58.6096 57.9103 58.2089 57.5535 57.7582 57.5535H38.4246C37.9237 57.5535 37.5731 57.9613 37.5731 58.42C37.5731 58.8787 37.9738 59.2865 38.4246 59.2865Z" fill="white"/>
<path d="M38.4246 67.2886H57.7582C58.259 67.2886 58.6096 66.8809 58.6096 66.4221C58.6096 65.9634 58.2089 65.5557 57.7582 65.5557H38.4246C37.9237 65.5557 37.5731 65.9634 37.5731 66.4221C37.5731 66.8809 37.9738 67.2886 38.4246 67.2886Z" fill="white"/>
<path d="M51.347 73.5068H38.4246C37.9237 73.5068 37.5731 73.9146 37.5731 74.3733C37.5731 74.832 37.9738 75.2398 38.4246 75.2398H51.347C51.8479 75.2398 52.1985 74.832 52.1985 74.3733C52.1985 73.9146 51.8479 73.5068 51.347 73.5068Z" fill="white"/>
<path d="M76.2404 60.6626L73.9364 58.3181C73.1851 57.5535 71.983 57.5535 71.2317 58.3181L66.9743 62.6504V40.6319C66.9743 40.1222 66.5736 39.7654 66.1228 39.7654H30.0602C29.5593 39.7654 29.2087 40.1731 29.2087 40.6319V84.1593C29.2087 84.669 29.6094 85.0258 30.0602 85.0258H66.0727C66.5736 85.0258 66.9242 84.618 66.9242 84.1593V72.7932L76.1903 63.364C76.9917 62.5994 76.9917 61.3762 76.2404 60.6626ZM57.2574 75.0359L59.8119 77.5843L59.7618 77.6353L56.3559 78.5017L57.2574 75.0359ZM61.014 76.361L58.4595 73.7616L69.8293 62.1917L72.3837 64.7911L61.014 76.361ZM65.2213 83.2418H30.9618V41.5493H65.2714V64.3834L56.0053 73.7616C55.7548 74.0165 55.6046 74.2713 55.5044 74.6281L54.6028 78.094C54.4526 78.7056 54.6028 79.3682 55.0536 79.8269C55.4042 80.1837 55.855 80.3366 56.3058 80.3366C56.456 80.3366 56.6063 80.3366 56.7566 80.2856L60.1625 79.3682C60.463 79.2663 60.7635 79.1134 61.014 78.8585L65.2714 74.5262V83.2418H65.2213ZM74.9882 62.1407L73.6359 63.5169L71.0814 60.9175L72.4338 59.5413C72.4839 59.4903 72.4839 59.4903 72.534 59.4903C72.584 59.4903 72.6341 59.4903 72.6341 59.5413L74.9381 61.8859C75.0383 61.9368 75.0383 62.0898 74.9882 62.1407Z" fill="white"/>
<circle cx="95" cy="19" r="17.5" fill="url(#paint1_linear)" stroke="white" stroke-width="3"/>
<path d="M99.5879 26H90.2627V23.7148L93.4004 20.542C94.2969 19.6045 94.8828 18.9658 95.1582 18.626C95.4336 18.2803 95.624 17.9844 95.7295 17.7383C95.8408 17.4922 95.8965 17.2344 95.8965 16.9648C95.8965 16.6309 95.7881 16.3672 95.5713 16.1738C95.3545 15.9805 95.0498 15.8838 94.6572 15.8838C94.2529 15.8838 93.8428 16.001 93.4268 16.2354C93.0166 16.4639 92.5508 16.8037 92.0293 17.2549L90.1221 15.0225C90.7842 14.4307 91.3408 14.0088 91.792 13.7568C92.2432 13.499 92.7324 13.3027 93.2598 13.168C93.793 13.0332 94.3906 12.9658 95.0527 12.9658C95.8848 12.9658 96.626 13.1123 97.2764 13.4053C97.9326 13.6982 98.4395 14.1172 98.7969 14.6621C99.1602 15.2012 99.3418 15.8076 99.3418 16.4814C99.3418 16.9854 99.2773 17.4512 99.1484 17.8789C99.0254 18.3066 98.832 18.7285 98.5684 19.1445C98.3047 19.5547 97.9531 19.9883 97.5137 20.4453C97.0801 20.9023 96.1514 21.7695 94.7275 23.0469V23.1348H99.5879V26Z" fill="white"/>
<defs>
<linearGradient id="paint0_linear" x1="19.5" y1="22" x2="76.5" y2="104" gradientUnits="userSpaceOnUse">
<stop stop-color="#F75539"/>
<stop offset="1" stop-color="#EF9B51"/>
</linearGradient>
<linearGradient id="paint1_linear" x1="86" y1="6" x2="102.5" y2="33" gradientUnits="userSpaceOnUse">
<stop stop-color="#F75539"/>
<stop offset="1" stop-color="#EF9B51"/>
</linearGradient>
</defs>
</svg>
