<svg width="127" height="126" viewBox="0 0 127 126" fill="none" xmlns="http://www.w3.org/2000/svg">
<g filter="url(#filter0_d)">
<path d="M70.886 35.0402C75.9453 33.1855 81.1152 37.5032 80.1918 42.812L74.2594 76.9176C73.336 82.2265 67.0118 84.5449 62.8759 81.0907L36.3058 58.9004C32.1699 55.4462 33.3242 48.8101 38.3835 46.9554L70.886 35.0402Z" fill="#EEA849"/>
<path d="M70.886 35.0402C75.9453 33.1855 81.1152 37.5032 80.1918 42.812L74.2594 76.9176C73.336 82.2265 67.0118 84.5449 62.8759 81.0907L36.3058 58.9004C32.1699 55.4462 33.3242 48.8101 38.3835 46.9554L70.886 35.0402Z" fill="url(#paint0_linear)"/>
</g>
<defs>
<filter id="filter0_d" x="0.925049" y="0.650795" width="125.523" height="124.934" filterUnits="userSpaceOnUse" color-interpolation-filters="sRGB">
<feFlood flood-opacity="0" result="BackgroundImageFix"/>
<feColorMatrix in="SourceAlpha" type="matrix" values="0 0 0 0 0 0 0 0 0 0 0 0 0 0 0 0 0 0 127 0"/>
<feOffset dy="10"/>
<feGaussianBlur stdDeviation="15"/>
<feColorMatrix type="matrix" values="0 0 0 0 0.842795 0 0 0 0 0.532764 0 0 0 0 0.246582 0 0 0 0.5 0"/>
<feBlend mode="normal" in2="BackgroundImageFix" result="effect1_dropShadow"/>
<feBlend mode="normal" in="SourceGraphic" in2="effect1_dropShadow" result="shape"/>
</filter>
<linearGradient id="paint0_linear" x1="82.2695" y1="30.867" x2="49.5908" y2="69.9956" gradientUnits="userSpaceOnUse">
<stop stop-color="#F75539"/>
<stop offset="1" stop-color="#EF9B51"/>
</linearGradient>
</defs>
</svg>
