<svg width="114" height="112" viewBox="0 0 114 112" fill="none" xmlns="http://www.w3.org/2000/svg">
<circle cx="50" cy="62" r="50" fill="url(#paint0_linear)"/>
<path d="M73.2499 61.8C73.2499 53.4137 69.0664 46.021 62.7462 41.7221C66.9312 39.394 70.0572 38.7019 71.2039 39.8884C71.8999 40.6068 71.9269 42.1708 71.2804 44.2912C71.1559 44.6996 71.3757 45.1344 71.7702 45.263C71.8459 45.2878 71.9209 45.2995 71.9959 45.2995C72.3147 45.2995 72.6102 45.0879 72.7114 44.757C73.5574 41.9801 73.4074 39.9729 72.2644 38.7926C70.0144 36.466 65.1102 38.5461 61.2679 40.7952C57.9274 38.8739 54.0867 37.775 49.9999 37.775C37.1794 37.775 26.7499 48.5529 26.7499 61.8C26.7499 66.0222 27.8134 69.9917 29.6719 73.4436C27.4962 77.4139 25.4832 82.4816 27.7347 84.8074C28.4097 85.5057 29.3457 85.8234 30.4834 85.8234C32.6419 85.8234 35.5272 84.6656 38.7162 82.7963C42.0597 84.7222 45.9064 85.825 49.9992 85.825H49.9999H50.0007C62.8204 85.8242 73.2499 75.0471 73.2499 61.8ZM28.2687 62.575H37.2687C37.3827 66.7003 38.3862 70.3219 39.7819 73.401C36.4527 74.5914 34.7712 76.1848 34.0497 77.059C30.6124 73.225 28.4532 68.1558 28.2687 62.575ZM34.0497 46.541C34.7719 47.4144 36.4527 49.0078 39.7819 50.199C38.3862 53.2781 37.3819 56.8997 37.2687 61.025H28.2687C28.4532 55.4442 30.6124 50.3749 34.0497 46.541ZM64.8889 45.439C64.3857 46.0853 62.8887 47.6539 59.5272 48.8102C57.2239 44.3532 54.2127 41.185 52.2949 39.4513C57.1429 39.9791 61.5184 42.1623 64.8889 45.439ZM71.7312 61.025H68.2729C67.2844 57.8754 64.8342 55.4047 61.7517 54.4654C61.3317 52.9464 60.8037 51.525 60.2044 50.2037C63.5427 49.0125 65.2279 47.416 65.9502 46.5418C69.3874 50.3749 71.5467 55.4442 71.7312 61.025ZM51.0619 73.4389C53.8954 73.5102 56.1904 73.866 58.0422 74.3573C55.6272 78.8794 52.4419 81.9957 50.7499 83.4589V73.7195C50.8542 73.6257 50.9584 73.5327 51.0619 73.4389ZM52.6587 71.9602C52.6939 71.9269 52.7292 71.8944 52.7644 71.861C52.8109 71.9013 52.8597 71.9378 52.9069 71.9773C52.8244 71.9719 52.7419 71.9657 52.6587 71.9602ZM50.7499 71.6595V69.4694C51.0312 69.9313 51.3462 70.3668 51.6942 70.7737C51.3777 71.0736 51.0627 71.3697 50.7499 71.6595ZM49.2499 71.8851C45.9844 71.9409 43.3579 72.3501 41.2654 72.9329C39.8892 69.9824 38.8879 66.5112 38.7694 62.575H49.2499V71.8851ZM50.7499 40.1395C52.4412 41.6027 55.6242 44.7236 58.0437 49.2558C56.1289 49.758 53.7304 50.1138 50.7499 50.1657V40.1395ZM49.2499 50.1649C46.2852 50.1122 43.8927 49.7534 41.9779 49.2473C44.3967 44.7267 47.5639 41.6081 49.2499 40.1434V50.1649ZM49.2499 51.7149V61.025H38.7694C38.8879 57.0919 39.8914 53.6199 41.2699 50.6687C43.3617 51.2499 45.9867 51.6599 49.2499 51.7149ZM50.7499 51.7149C54.0229 51.6591 56.6539 51.2476 58.7487 50.6632C59.2527 51.7451 59.7064 52.8968 60.0844 54.1159C59.7274 54.0756 59.3667 54.05 58.9999 54.05C55.5252 54.05 52.4772 55.9441 50.7499 58.7806V51.7149ZM40.4629 48.787C37.1457 47.6314 35.6299 46.0783 35.1154 45.4351C38.4844 42.1615 42.8562 39.9806 47.7012 39.4521C45.7782 41.1842 42.7639 44.3408 40.4629 48.787ZM40.4547 74.796C41.1319 76.1065 41.8707 77.3062 42.6267 78.3904C41.2497 79.3909 39.9424 80.2628 38.7177 81.0084C37.4187 80.1907 36.2134 79.2328 35.1117 78.1618C35.6134 77.5162 37.1067 75.9523 40.4547 74.796ZM41.9659 74.3418C43.7772 73.8675 46.0167 73.5234 48.7744 73.4436C47.0764 74.937 45.4392 76.2747 43.8792 77.4596C43.2177 76.5095 42.5689 75.4702 41.9659 74.3418ZM49.2499 75.0424V83.4589C48.1707 82.5235 46.4847 80.9084 44.7754 78.6826C46.2687 77.5464 47.7702 76.3227 49.2499 75.0424ZM59.5084 74.8029C62.8459 75.9592 64.3677 77.5193 64.8844 78.1657C61.5132 81.4416 57.1362 83.624 52.2867 84.1502C54.1954 82.4227 57.1932 79.2646 59.5084 74.8029ZM61.4217 73.8791C62.5684 73.5738 63.6582 73.0569 64.6437 72.3315C64.9812 72.0835 65.0599 71.5991 64.8192 71.2503C64.5792 70.9024 64.1112 70.8194 63.7729 71.069C62.3674 72.1028 60.7174 72.65 58.9999 72.65C54.4512 72.65 50.7499 68.8254 50.7499 64.125C50.7499 59.4246 54.4512 55.6 58.9999 55.6C63.5487 55.6 67.2499 59.4246 67.2499 64.125C67.2499 65.899 66.7204 67.6047 65.7192 69.0586C65.4792 69.4074 65.5572 69.891 65.8947 70.1398C66.2314 70.3878 66.7002 70.3064 66.9409 69.9584C68.1244 68.2402 68.7499 66.2229 68.7499 64.125C68.7499 63.5964 68.6982 63.0818 68.6224 62.575H71.7312C71.5467 68.1558 69.3874 73.225 65.9502 77.059C65.3209 76.2979 63.9627 74.9905 61.4217 73.8791ZM28.7959 83.7116C27.6469 82.5243 28.3159 79.2948 30.5697 74.9711C32.3157 77.7123 34.5882 80.0621 37.2394 81.8686C32.9622 84.2386 29.9067 84.8586 28.7959 83.7116ZM43.5267 79.6157C45.0529 81.6043 46.5664 83.1257 47.7012 84.1487C45.0379 83.858 42.5194 83.066 40.2297 81.8702C41.3082 81.1835 42.4099 80.4302 43.5267 79.6157Z" fill="white"/>
<path d="M59 60.25C59.8273 60.25 60.5 60.9452 60.5 61.8C60.5 62.2278 60.8352 62.575 61.25 62.575C61.6648 62.575 62 62.2278 62 61.8C62 60.36 61.0408 59.1565 59.75 58.81V57.925C59.75 57.4972 59.4148 57.15 59 57.15C58.5852 57.15 58.25 57.4972 58.25 57.925V58.81C56.9593 59.1565 56 60.36 56 61.8C56 63.5096 57.3455 64.9 59 64.9C59.8273 64.9 60.5 65.5952 60.5 66.45C60.5 67.3048 59.8273 68 59 68C58.1727 68 57.5 67.3048 57.5 66.45C57.5 66.0222 57.1647 65.675 56.75 65.675C56.3353 65.675 56 66.0222 56 66.45C56 67.8899 56.9593 69.0935 58.25 69.4399V70.325C58.25 70.7528 58.5852 71.1 59 71.1C59.4148 71.1 59.75 70.7528 59.75 70.325V69.4399C61.0408 69.0935 62 67.8899 62 66.45C62 64.7403 60.6545 63.35 59 63.35C58.1727 63.35 57.5 62.6548 57.5 61.8C57.5 60.9452 58.1727 60.25 59 60.25Z" fill="white"/>
<path d="M65 64.9C65.4142 64.9 65.75 64.553 65.75 64.125C65.75 63.697 65.4142 63.35 65 63.35C64.5858 63.35 64.25 63.697 64.25 64.125C64.25 64.553 64.5858 64.9 65 64.9Z" fill="white"/>
<path d="M53 64.9C53.4142 64.9 53.75 64.553 53.75 64.125C53.75 63.697 53.4142 63.35 53 63.35C52.5858 63.35 52.25 63.697 52.25 64.125C52.25 64.553 52.5858 64.9 53 64.9Z" fill="white"/>
<path d="M71 47.85C71.4142 47.85 71.75 47.503 71.75 47.075C71.75 46.647 71.4142 46.3 71 46.3C70.5858 46.3 70.25 46.647 70.25 47.075C70.25 47.503 70.5858 47.85 71 47.85Z" fill="white"/>
<circle cx="95" cy="19" r="17.5" fill="url(#paint1_linear)" stroke="white" stroke-width="3"/>
<path d="M99.1572 15.9365C99.1572 16.7334 98.9141 17.4189 98.4277 17.9932C97.9414 18.5615 97.2383 18.9746 96.3184 19.2324V19.2852C98.4629 19.5547 99.5352 20.5684 99.5352 22.3262C99.5352 23.5215 99.0605 24.4619 98.1113 25.1475C97.168 25.833 95.8555 26.1758 94.1738 26.1758C93.4824 26.1758 92.8408 26.126 92.249 26.0264C91.6631 25.9268 91.0273 25.7451 90.3418 25.4814V22.5986C90.9043 22.8857 91.4756 23.0996 92.0557 23.2402C92.6416 23.375 93.1807 23.4424 93.6729 23.4424C94.4346 23.4424 94.9883 23.3369 95.334 23.126C95.6855 22.9092 95.8613 22.5723 95.8613 22.1152C95.8613 21.7637 95.7705 21.4941 95.5889 21.3066C95.4072 21.1133 95.1143 20.9697 94.71 20.876C94.3057 20.7764 93.7783 20.7266 93.1279 20.7266H92.3369V18.1162H93.1455C94.9092 18.1162 95.791 17.665 95.791 16.7627C95.791 16.4229 95.6592 16.1709 95.3955 16.0068C95.1377 15.8428 94.7891 15.7607 94.3496 15.7607C93.5293 15.7607 92.6797 16.0361 91.8008 16.5869L90.3594 14.2666C91.0391 13.7979 91.7334 13.4639 92.4424 13.2646C93.1572 13.0654 93.9746 12.9658 94.8945 12.9658C96.2246 12.9658 97.2676 13.2295 98.0234 13.7568C98.7793 14.2842 99.1572 15.0107 99.1572 15.9365Z" fill="white"/>
<defs>
<linearGradient id="paint0_linear" x1="19.5" y1="22.5" x2="75" y2="104" gradientUnits="userSpaceOnUse">
<stop stop-color="#F75539"/>
<stop offset="1" stop-color="#EF9B51"/>
</linearGradient>
<linearGradient id="paint1_linear" x1="85" y1="6.5" x2="103" y2="32.5" gradientUnits="userSpaceOnUse">
<stop stop-color="#F75539"/>
<stop offset="1" stop-color="#EF9B51"/>
</linearGradient>
</defs>
</svg>
