<svg width="38" height="38" viewBox="0 0 38 38" fill="none" xmlns="http://www.w3.org/2000/svg">
<circle cx="19" cy="19" r="17.5" fill="url(#paint0_linear)" stroke="white" stroke-width="3"/>
<path d="M23.1572 15.9365C23.1572 16.7334 22.9141 17.4189 22.4277 17.9932C21.9414 18.5615 21.2383 18.9746 20.3184 19.2324V19.2852C22.4629 19.5547 23.5352 20.5684 23.5352 22.3262C23.5352 23.5215 23.0605 24.4619 22.1113 25.1475C21.168 25.833 19.8555 26.1758 18.1738 26.1758C17.4824 26.1758 16.8408 26.126 16.249 26.0264C15.6631 25.9268 15.0273 25.7451 14.3418 25.4814V22.5986C14.9043 22.8857 15.4756 23.0996 16.0557 23.2402C16.6416 23.375 17.1807 23.4424 17.6729 23.4424C18.4346 23.4424 18.9883 23.3369 19.334 23.126C19.6855 22.9092 19.8613 22.5723 19.8613 22.1152C19.8613 21.7637 19.7705 21.4941 19.5889 21.3066C19.4072 21.1133 19.1143 20.9697 18.71 20.876C18.3057 20.7764 17.7783 20.7266 17.1279 20.7266H16.3369V18.1162H17.1455C18.9092 18.1162 19.791 17.665 19.791 16.7627C19.791 16.4229 19.6592 16.1709 19.3955 16.0068C19.1377 15.8428 18.7891 15.7607 18.3496 15.7607C17.5293 15.7607 16.6797 16.0361 15.8008 16.5869L14.3594 14.2666C15.0391 13.7979 15.7334 13.4639 16.4424 13.2646C17.1572 13.0654 17.9746 12.9658 18.8945 12.9658C20.2246 12.9658 21.2676 13.2295 22.0234 13.7568C22.7793 14.2842 23.1572 15.0107 23.1572 15.9365Z" fill="white"/>
<defs>
<linearGradient id="paint0_linear" x1="9" y1="6.5" x2="27" y2="32.5" gradientUnits="userSpaceOnUse">
<stop stop-color="#F75539"/>
<stop offset="1" stop-color="#EF9B51"/>
</linearGradient>
</defs>
</svg>
