<svg width="100" height="100" viewBox="0 0 100 100" fill="none" xmlns="http://www.w3.org/2000/svg">
<circle cx="50" cy="50" r="50" fill="url(#paint0_linear)"/>
<path d="M73.2499 49.8C73.2499 41.4137 69.0664 34.021 62.7462 29.7221C66.9312 27.394 70.0572 26.7019 71.2039 27.8884C71.8999 28.6068 71.9269 30.1708 71.2804 32.2912C71.1559 32.6996 71.3757 33.1344 71.7702 33.263C71.8459 33.2878 71.9209 33.2995 71.9959 33.2995C72.3147 33.2995 72.6102 33.0879 72.7114 32.757C73.5574 29.9801 73.4074 27.9729 72.2644 26.7926C70.0144 24.466 65.1102 26.5461 61.2679 28.7952C57.9274 26.8739 54.0867 25.775 49.9999 25.775C37.1794 25.775 26.7499 36.5529 26.7499 49.8C26.7499 54.0222 27.8134 57.9917 29.6719 61.4436C27.4962 65.4139 25.4832 70.4816 27.7347 72.8074C28.4097 73.5057 29.3457 73.8234 30.4834 73.8234C32.6419 73.8234 35.5272 72.6656 38.7162 70.7963C42.0597 72.7222 45.9064 73.825 49.9992 73.825H49.9999H50.0007C62.8204 73.8242 73.2499 63.0471 73.2499 49.8ZM28.2687 50.575H37.2687C37.3827 54.7003 38.3862 58.3219 39.7819 61.401C36.4527 62.5914 34.7712 64.1848 34.0497 65.059C30.6124 61.225 28.4532 56.1558 28.2687 50.575ZM34.0497 34.541C34.7719 35.4144 36.4527 37.0078 39.7819 38.199C38.3862 41.2781 37.3819 44.8997 37.2687 49.025H28.2687C28.4532 43.4442 30.6124 38.3749 34.0497 34.541ZM64.8889 33.439C64.3857 34.0853 62.8887 35.6539 59.5272 36.8102C57.2239 32.3532 54.2127 29.185 52.2949 27.4513C57.1429 27.9791 61.5184 30.1623 64.8889 33.439ZM71.7312 49.025H68.2729C67.2844 45.8754 64.8342 43.4047 61.7517 42.4654C61.3317 40.9464 60.8037 39.525 60.2044 38.2037C63.5427 37.0125 65.2279 35.416 65.9502 34.5418C69.3874 38.3749 71.5467 43.4442 71.7312 49.025ZM51.0619 61.4389C53.8954 61.5102 56.1904 61.866 58.0422 62.3573C55.6272 66.8794 52.4419 69.9957 50.7499 71.4589V61.7195C50.8542 61.6257 50.9584 61.5327 51.0619 61.4389ZM52.6587 59.9602C52.6939 59.9269 52.7292 59.8944 52.7644 59.861C52.8109 59.9013 52.8597 59.9378 52.9069 59.9773C52.8244 59.9719 52.7419 59.9657 52.6587 59.9602ZM50.7499 59.6595V57.4694C51.0312 57.9313 51.3462 58.3668 51.6942 58.7737C51.3777 59.0736 51.0627 59.3697 50.7499 59.6595ZM49.2499 59.8851C45.9844 59.9409 43.3579 60.3501 41.2654 60.9329C39.8892 57.9824 38.8879 54.5112 38.7694 50.575H49.2499V59.8851ZM50.7499 28.1395C52.4412 29.6027 55.6242 32.7236 58.0437 37.2558C56.1289 37.758 53.7304 38.1138 50.7499 38.1657V28.1395ZM49.2499 38.1649C46.2852 38.1122 43.8927 37.7534 41.9779 37.2473C44.3967 32.7267 47.5639 29.6081 49.2499 28.1434V38.1649ZM49.2499 39.7149V49.025H38.7694C38.8879 45.0919 39.8914 41.6199 41.2699 38.6687C43.3617 39.2499 45.9867 39.6599 49.2499 39.7149ZM50.7499 39.7149C54.0229 39.6591 56.6539 39.2476 58.7487 38.6632C59.2527 39.7451 59.7064 40.8968 60.0844 42.1159C59.7274 42.0756 59.3667 42.05 58.9999 42.05C55.5252 42.05 52.4772 43.9441 50.7499 46.7806V39.7149ZM40.4629 36.787C37.1457 35.6314 35.6299 34.0783 35.1154 33.4351C38.4844 30.1615 42.8562 27.9806 47.7012 27.4521C45.7782 29.1842 42.7639 32.3408 40.4629 36.787ZM40.4547 62.796C41.1319 64.1065 41.8707 65.3062 42.6267 66.3904C41.2497 67.3909 39.9424 68.2628 38.7177 69.0084C37.4187 68.1907 36.2134 67.2328 35.1117 66.1618C35.6134 65.5162 37.1067 63.9523 40.4547 62.796ZM41.9659 62.3418C43.7772 61.8675 46.0167 61.5234 48.7744 61.4436C47.0764 62.937 45.4392 64.2747 43.8792 65.4596C43.2177 64.5095 42.5689 63.4702 41.9659 62.3418ZM49.2499 63.0424V71.4589C48.1707 70.5235 46.4847 68.9084 44.7754 66.6826C46.2687 65.5464 47.7702 64.3227 49.2499 63.0424ZM59.5084 62.8029C62.8459 63.9592 64.3677 65.5193 64.8844 66.1657C61.5132 69.4416 57.1362 71.624 52.2867 72.1502C54.1954 70.4227 57.1932 67.2646 59.5084 62.8029ZM61.4217 61.8791C62.5684 61.5738 63.6582 61.0569 64.6437 60.3315C64.9812 60.0835 65.0599 59.5991 64.8192 59.2503C64.5792 58.9024 64.1112 58.8194 63.7729 59.069C62.3674 60.1028 60.7174 60.65 58.9999 60.65C54.4512 60.65 50.7499 56.8254 50.7499 52.125C50.7499 47.4246 54.4512 43.6 58.9999 43.6C63.5487 43.6 67.2499 47.4246 67.2499 52.125C67.2499 53.899 66.7204 55.6047 65.7192 57.0586C65.4792 57.4074 65.5572 57.891 65.8947 58.1398C66.2314 58.3878 66.7002 58.3064 66.9409 57.9584C68.1244 56.2402 68.7499 54.2229 68.7499 52.125C68.7499 51.5964 68.6982 51.0818 68.6224 50.575H71.7312C71.5467 56.1558 69.3874 61.225 65.9502 65.059C65.3209 64.2979 63.9627 62.9905 61.4217 61.8791ZM28.7959 71.7116C27.6469 70.5243 28.3159 67.2948 30.5697 62.9711C32.3157 65.7123 34.5882 68.0621 37.2394 69.8686C32.9622 72.2386 29.9067 72.8586 28.7959 71.7116ZM43.5267 67.6157C45.0529 69.6043 46.5664 71.1257 47.7012 72.1487C45.0379 71.858 42.5194 71.066 40.2297 69.8702C41.3082 69.1835 42.4099 68.4302 43.5267 67.6157Z" fill="white"/>
<path d="M59 48.25C59.8273 48.25 60.5 48.9452 60.5 49.8C60.5 50.2278 60.8352 50.575 61.25 50.575C61.6648 50.575 62 50.2278 62 49.8C62 48.36 61.0408 47.1565 59.75 46.81V45.925C59.75 45.4972 59.4148 45.15 59 45.15C58.5852 45.15 58.25 45.4972 58.25 45.925V46.81C56.9593 47.1565 56 48.36 56 49.8C56 51.5096 57.3455 52.9 59 52.9C59.8273 52.9 60.5 53.5952 60.5 54.45C60.5 55.3048 59.8273 56 59 56C58.1727 56 57.5 55.3048 57.5 54.45C57.5 54.0222 57.1647 53.675 56.75 53.675C56.3353 53.675 56 54.0222 56 54.45C56 55.8899 56.9593 57.0935 58.25 57.4399V58.325C58.25 58.7528 58.5852 59.1 59 59.1C59.4148 59.1 59.75 58.7528 59.75 58.325V57.4399C61.0408 57.0935 62 55.8899 62 54.45C62 52.7403 60.6545 51.35 59 51.35C58.1727 51.35 57.5 50.6548 57.5 49.8C57.5 48.9452 58.1727 48.25 59 48.25Z" fill="white"/>
<path d="M65 52.9C65.4142 52.9 65.75 52.553 65.75 52.125C65.75 51.697 65.4142 51.35 65 51.35C64.5858 51.35 64.25 51.697 64.25 52.125C64.25 52.553 64.5858 52.9 65 52.9Z" fill="white"/>
<path d="M53 52.9C53.4142 52.9 53.75 52.553 53.75 52.125C53.75 51.697 53.4142 51.35 53 51.35C52.5858 51.35 52.25 51.697 52.25 52.125C52.25 52.553 52.5858 52.9 53 52.9Z" fill="white"/>
<path d="M71 35.85C71.4142 35.85 71.75 35.503 71.75 35.075C71.75 34.647 71.4142 34.3 71 34.3C70.5858 34.3 70.25 34.647 70.25 35.075C70.25 35.503 70.5858 35.85 71 35.85Z" fill="white"/>
<defs>
<linearGradient id="paint0_linear" x1="19.5" y1="10.5" x2="75" y2="92" gradientUnits="userSpaceOnUse">
<stop stop-color="#F75539"/>
<stop offset="1" stop-color="#EF9B51"/>
</linearGradient>
</defs>
</svg>
