<svg width="63" height="44" viewBox="0 0 63 44" fill="none" xmlns="http://www.w3.org/2000/svg">
<path d="M29.0391 22.2979C29.0391 29.529 27.8496 34.8815 25.4707 38.3555C23.1107 41.8294 19.4668 43.5664 14.5391 43.5664C9.76237 43.5664 6.15625 41.7728 3.7207 38.1855C1.30404 34.5983 0.0957031 29.3024 0.0957031 22.2979C0.0957031 14.9912 1.27572 9.61035 3.63574 6.15527C5.99577 2.68132 9.63021 0.944336 14.5391 0.944336C19.3158 0.944336 22.9219 2.75684 25.3574 6.38184C27.8118 10.0068 29.0391 15.3122 29.0391 22.2979ZM8.79004 22.2979C8.79004 27.3766 9.22428 31.0205 10.0928 33.2295C10.9801 35.4196 12.4622 36.5146 14.5391 36.5146C16.5781 36.5146 18.0508 35.4007 18.957 33.1729C19.8633 30.945 20.3164 27.32 20.3164 22.2979C20.3164 17.2191 19.8538 13.5752 18.9287 11.3662C18.0225 9.13835 16.5592 8.02441 14.5391 8.02441C12.4811 8.02441 11.0085 9.13835 10.1211 11.3662C9.23372 13.5752 8.79004 17.2191 8.79004 22.2979ZM60.7861 10.8564C60.7861 13.443 60.0026 15.6426 58.4355 17.4551C56.8685 19.2676 54.6689 20.5137 51.8369 21.1934V21.3633C55.1787 21.7786 57.7087 22.7982 59.4268 24.4219C61.1449 26.0267 62.0039 28.1979 62.0039 30.9355C62.0039 34.9193 60.5596 38.0251 57.6709 40.2529C54.7822 42.4619 50.6569 43.5664 45.2949 43.5664C40.8014 43.5664 36.8177 42.8206 33.3438 41.3291V33.8809C34.9486 34.6927 36.7139 35.3535 38.6396 35.8633C40.5654 36.373 42.4723 36.6279 44.3604 36.6279C47.249 36.6279 49.3825 36.137 50.7607 35.1553C52.139 34.1735 52.8281 32.597 52.8281 30.4258C52.8281 28.4811 52.0352 27.1029 50.4492 26.291C48.8633 25.4792 46.3333 25.0732 42.8594 25.0732H39.7158V18.3613H42.916C46.1257 18.3613 48.4668 17.946 49.9395 17.1152C51.431 16.2656 52.1768 14.8213 52.1768 12.7822C52.1768 9.64811 50.2132 8.08105 46.2861 8.08105C44.9268 8.08105 43.5391 8.30762 42.123 8.76074C40.7259 9.21387 39.1683 9.9974 37.4502 11.1113L33.4004 5.0791C37.1764 2.36035 41.6794 1.00098 46.9092 1.00098C51.195 1.00098 54.5745 1.86947 57.0479 3.60645C59.54 5.34342 60.7861 7.76009 60.7861 10.8564Z" fill="#FBECE1"/>
</svg>
