<svg width="61" height="50" viewBox="0 0 61 50" fill="none" xmlns="http://www.w3.org/2000/svg">
<path d="M14.5957 7.52389C15.8093 7.52389 16.959 8.0062 17.8213 8.87437L30.6281 22.2827C30.9794 22.6686 31.6182 22.6686 31.9695 22.2827L44.0417 9.61392C39.5386 3.89045 32.5763 0.224854 24.7517 0.224854C11.1465 0.224854 0.0961914 11.3181 0.0961914 25.0159C0.0961914 38.7136 11.1145 49.8069 24.7198 49.8069C31.1072 49.8069 36.9517 47.3631 41.3271 43.3438V26.1413C41.3271 25.7232 40.848 25.5303 40.5606 25.8197L32.6402 34.9837C31.9056 35.8197 30.6281 35.8197 29.8936 34.9837L22.0051 25.8197C21.7177 25.5303 21.2386 25.7232 21.2386 26.1413V43.8905C16.3203 43.8905 12.2962 40.5786 12.2962 35.6268V9.839C12.2962 8.55283 13.3182 7.52389 14.5957 7.52389Z" fill="url(#paint0_linear)"/>
<path d="M53.8147 31.0288H48.0022C47.2357 31.0288 46.5969 31.6397 46.5969 32.4114V38.2635C46.5969 39.0352 47.2037 39.6783 48.0022 39.6783H53.8147C54.5812 39.6783 55.22 39.0674 55.22 38.2635V32.4114C55.22 31.6397 54.5812 31.0288 53.8147 31.0288Z" fill="url(#paint1_linear)"/>
<path d="M49.4072 23.8903H53.4313C54.1339 23.8903 54.6768 23.3115 54.6768 22.6363V18.5848C54.6768 17.8774 54.1019 17.3308 53.4313 17.3308H49.4072C48.7046 17.3308 48.1616 17.9096 48.1616 18.5848V22.6363C48.1616 23.3115 48.7046 23.8903 49.4072 23.8903Z" fill="url(#paint2_linear)"/>
<path d="M59.4037 24.6301H56.1142C55.6352 24.6301 55.22 25.016 55.22 25.5304V28.8423C55.22 29.3247 55.6032 29.7427 56.1142 29.7427H59.4037C59.8828 29.7427 60.298 29.3568 60.298 28.8423V25.5304C60.298 25.0481 59.8828 24.6301 59.4037 24.6301Z" fill="url(#paint3_linear)"/>
<path d="M55.3157 16.0126H57.6791C58.0623 16.0126 58.3497 15.6911 58.3497 15.3374V12.958C58.3497 12.5721 58.0304 12.2827 57.6791 12.2827H55.3157C54.9325 12.2827 54.645 12.6043 54.645 12.958V15.3374C54.645 15.6911 54.9325 16.0126 55.3157 16.0126Z" fill="url(#paint4_linear)"/>
<path d="M31.2665 36.7523C31.1707 36.7523 31.1068 36.7202 31.011 36.7202C32.2885 39.9356 33.1508 43.3761 33.4702 46.9453C35.8974 45.9485 38.1649 44.5658 40.177 42.7974V28.0063L33.5021 35.7555C32.9592 36.3986 32.1288 36.7523 31.2665 36.7523Z" fill="url(#paint5_linear)"/>
<path d="M24.7515 1.35034C15.6813 1.35034 7.82476 6.52719 3.89648 14.1156C6.41952 14.5979 8.84675 15.3375 11.1462 16.3343V9.83909C11.1462 7.94198 12.6792 6.36642 14.5954 6.36642C16.0965 6.36642 17.5656 6.97735 18.6195 8.0706L31.2666 21.3503L42.5085 9.58185C38.0373 4.3407 31.6179 1.35034 24.7515 1.35034Z" fill="url(#paint6_linear)"/>
<path d="M53.8146 31.7683H48.002C47.6507 31.7683 47.3633 32.0577 47.3633 32.4114V38.2635C47.3633 38.6172 47.6507 38.9066 48.002 38.9066H53.8146C54.1659 38.9066 54.4533 38.6172 54.4533 38.2635V32.4114C54.4853 32.0577 54.1659 31.7683 53.8146 31.7683Z" fill="url(#paint7_linear)"/>
<path d="M49.4067 23.1509H53.4308C53.7183 23.1509 53.9418 22.9259 53.9418 22.6365V18.585C53.9418 18.2956 53.7183 18.0706 53.4308 18.0706H49.4067C49.1193 18.0706 48.8958 18.2956 48.8958 18.585V22.6365C48.8958 22.8937 49.1193 23.1509 49.4067 23.1509Z" fill="url(#paint8_linear)"/>
<path d="M59.4036 25.4019H56.1141C56.0502 25.4019 55.9863 25.4662 55.9863 25.5305V28.8424C55.9863 28.9067 56.0502 28.971 56.1141 28.971H59.4036C59.4675 28.971 59.5313 28.9067 59.5313 28.8424V25.5305C59.5313 25.4662 59.4994 25.4019 59.4036 25.4019Z" fill="url(#paint9_linear)"/>
<path d="M57.6149 12.926H55.3154V15.2411H57.6149V12.926Z" fill="url(#paint10_linear)"/>
<defs>
<linearGradient id="paint0_linear" x1="344.395" y1="-258.451" x2="-183.386" y2="106.056" gradientUnits="userSpaceOnUse">
<stop stop-color="#F7D5A3"/>
</linearGradient>
<linearGradient id="paint1_linear" x1="114.156" y1="-14.0969" x2="18.7634" y2="60.0072" gradientUnits="userSpaceOnUse">
<stop stop-color="#F7D5A3"/>
</linearGradient>
<linearGradient id="paint2_linear" x1="99.2059" y1="-16.8909" x2="26.9307" y2="39.0471" gradientUnits="userSpaceOnUse">
<stop stop-color="#F7D5A3"/>
</linearGradient>
<linearGradient id="paint3_linear" x1="95.0045" y1="-2.0427" x2="38.6724" y2="41.5561" gradientUnits="userSpaceOnUse">
<stop stop-color="#F7D5A3"/>
</linearGradient>
<linearGradient id="paint4_linear" x1="83.6702" y1="-7.17673" x2="42.5725" y2="24.6311" gradientUnits="userSpaceOnUse">
<stop stop-color="#F7D5A3"/>
</linearGradient>
<linearGradient id="paint5_linear" x1="60.6175" y1="-48.3283" x2="-38.5958" y2="31.3787" gradientUnits="userSpaceOnUse">
<stop stop-color="white"/>
</linearGradient>
<linearGradient id="paint6_linear" x1="128.615" y1="-79.2611" x2="67.5978" y2="116.284" gradientUnits="userSpaceOnUse">
<stop stop-color="white"/>
</linearGradient>
<linearGradient id="paint7_linear" x1="70.2716" y1="2.997" x2="36.3169" y2="58.9977" gradientUnits="userSpaceOnUse">
<stop stop-color="white"/>
</linearGradient>
<linearGradient id="paint8_linear" x1="65.1948" y1="-2.40632" x2="41.0253" y2="37.4433" gradientUnits="userSpaceOnUse">
<stop stop-color="white"/>
</linearGradient>
<linearGradient id="paint9_linear" x1="67.4369" y1="11.0162" x2="50.4571" y2="39.0118" gradientUnits="userSpaceOnUse">
<stop stop-color="white"/>
</linearGradient>
<linearGradient id="paint10_linear" x1="62.7428" y1="3.5948" x2="51.7289" y2="21.7541" gradientUnits="userSpaceOnUse">
<stop stop-color="white"/>
</linearGradient>
</defs>
</svg>
