<svg width="97" height="108" viewBox="0 0 97 108" fill="none" xmlns="http://www.w3.org/2000/svg">
<g filter="url(#filter0_d)">
<path d="M55.2277 33.6578C60.5277 34.6311 62.7865 40.9769 59.2935 45.0801L43.9536 63.1002C40.4606 67.2034 33.8357 65.9867 32.0287 60.9101L24.0928 38.6153C22.2858 33.5387 26.652 28.4097 31.9519 29.383L55.2277 33.6578Z" fill="#EEA849"/>
<path d="M55.2277 33.6578C60.5277 34.6311 62.7865 40.9769 59.2935 45.0801L43.9536 63.1002C40.4606 67.2034 33.8357 65.9867 32.0287 60.9101L24.0928 38.6153C22.2858 33.5387 26.652 28.4097 31.9519 29.383L55.2277 33.6578Z" fill="url(#paint0_linear)"/>
</g>
<defs>
<filter id="filter0_d" x="-8.25806" y="0.443298" width="105.135" height="107.071" filterUnits="userSpaceOnUse" color-interpolation-filters="sRGB">
<feFlood flood-opacity="0" result="BackgroundImageFix"/>
<feColorMatrix in="SourceAlpha" type="matrix" values="0 0 0 0 0 0 0 0 0 0 0 0 0 0 0 0 0 0 127 0"/>
<feOffset dy="10"/>
<feGaussianBlur stdDeviation="15"/>
<feColorMatrix type="matrix" values="0 0 0 0 0.842795 0 0 0 0 0.532764 0 0 0 0 0.246582 0 0 0 0.5 0"/>
<feBlend mode="normal" in2="BackgroundImageFix" result="effect1_dropShadow"/>
<feBlend mode="normal" in="SourceGraphic" in2="effect1_dropShadow" result="shape"/>
</filter>
<linearGradient id="paint0_linear" x1="67.1526" y1="35.8479" x2="28.0607" y2="49.7627" gradientUnits="userSpaceOnUse">
<stop stop-color="#F75539"/>
<stop offset="1" stop-color="#EF9B51"/>
</linearGradient>
</defs>
</svg>
