<svg width="124" height="120" viewBox="0 0 124 120" fill="none" xmlns="http://www.w3.org/2000/svg">
<g filter="url(#filter0_d)">
<path d="M65.2147 29.7096C69.7668 26.826 75.7335 29.9515 75.9547 35.3356L77.3761 69.924C77.5973 75.3081 71.9072 78.9126 67.1339 76.4122L36.4687 60.3489C31.6953 57.8485 31.4188 51.1184 35.9709 48.2348L65.2147 29.7096Z" fill="#EEA849"/>
<path d="M65.2147 29.7096C69.7668 26.826 75.7335 29.9515 75.9547 35.3356L77.3761 69.924C77.5973 75.3081 71.9072 78.9126 67.1339 76.4122L36.4687 60.3489C31.6953 57.8485 31.4188 51.1184 35.9709 48.2348L65.2147 29.7096Z" fill="url(#paint0_linear)"/>
</g>
<defs>
<filter id="filter0_d" x="0.258545" y="-1.86243" width="123.493" height="121.528" filterUnits="userSpaceOnUse" color-interpolation-filters="sRGB">
<feFlood flood-opacity="0" result="BackgroundImageFix"/>
<feColorMatrix in="SourceAlpha" type="matrix" values="0 0 0 0 0 0 0 0 0 0 0 0 0 0 0 0 0 0 127 0"/>
<feOffset dy="10"/>
<feGaussianBlur stdDeviation="15"/>
<feColorMatrix type="matrix" values="0 0 0 0 0.842795 0 0 0 0 0.532764 0 0 0 0 0.246582 0 0 0 0.5 0"/>
<feBlend mode="normal" in2="BackgroundImageFix" result="effect1_dropShadow"/>
<feBlend mode="normal" in="SourceGraphic" in2="effect1_dropShadow" result="shape"/>
</filter>
<linearGradient id="paint0_linear" x1="75.4569" y1="23.2214" x2="51.8013" y2="68.3806" gradientUnits="userSpaceOnUse">
<stop stop-color="#F75539"/>
<stop offset="1" stop-color="#EF9B51"/>
</linearGradient>
</defs>
</svg>
