<svg width="24" height="15" viewBox="0 0 24 15" fill="none" xmlns="http://www.w3.org/2000/svg">
<path d="M11.9951 8.65101C11.0965 8.63429 10.2203 8.39037 9.46268 7.94604L1.72876 14.1523C2.13092 14.3842 2.59603 14.5073 3.07081 14.5075H20.9295C21.4048 14.5073 21.8703 14.3839 22.2727 14.1516L14.5014 7.95137C13.7526 8.39343 12.8849 8.63565 11.9951 8.65101Z" fill="#F75539"/>
<path d="M8.4116 7.24964L1.01513 1.31458C0.69685 1.71303 0.525162 2.19436 0.525024 2.68861V12.1685C0.525177 12.6629 0.696957 13.1443 1.01539 13.5429L8.64466 7.42052C8.56699 7.36371 8.48926 7.3104 8.4116 7.24964Z" fill="#F75539"/>
<path d="M1.72827 0.704941L9.04427 6.57557C11.0917 8.17668 12.9034 8.17759 14.9145 6.57465L22.2733 0.705871C21.8708 0.473285 21.4049 0.349799 20.9294 0.349609H3.07069C2.59577 0.349796 2.13051 0.472947 1.72827 0.704941Z" fill="#F75539"/>
<path d="M15.5495 7.24696C15.4716 7.30911 15.3935 7.36373 15.3154 7.42176L22.9858 13.5415C23.3035 13.1432 23.4748 12.6623 23.4749 12.1686V2.68869C23.4748 2.19509 23.3036 1.71435 22.9861 1.31616L15.5495 7.24696Z" fill="#F75539"/>
</svg>
