<svg width="147" height="202" viewBox="0 0 147 202" fill="none" xmlns="http://www.w3.org/2000/svg">
<path d="M43.2129 122.414V109.816C43.2129 100.246 45.166 92.1895 49.0723 85.6465C52.9785 79.0059 59.9121 72.5605 69.873 66.3105C77.7832 61.3301 83.4473 56.8379 86.8652 52.834C90.3809 48.8301 92.1387 44.2402 92.1387 39.0645C92.1387 34.9629 90.2832 31.7402 86.5723 29.3965C82.8613 26.9551 78.0273 25.7344 72.0703 25.7344C57.3242 25.7344 40.0879 30.959 20.3613 41.4082L0 1.56445C24.3164 -12.3027 49.707 -19.2363 76.1719 -19.2363C97.9492 -19.2363 115.039 -14.4512 127.441 -4.88086C139.844 4.68945 146.045 17.7266 146.045 34.2305C146.045 46.0469 143.262 56.3008 137.695 64.9922C132.227 73.5859 123.438 81.7402 111.328 89.4551C101.074 96.0957 94.6289 100.979 91.9922 104.104C89.4531 107.131 88.1836 110.744 88.1836 114.943V122.414H43.2129ZM36.9141 173.684C36.9141 164.699 39.502 157.766 44.6777 152.883C49.9512 148 57.666 145.559 67.8223 145.559C77.5879 145.559 85.0586 148.049 90.2344 153.029C95.5078 157.912 98.1445 164.797 98.1445 173.684C98.1445 182.57 95.4102 189.455 89.9414 194.338C84.5703 199.221 77.1973 201.662 67.8223 201.662C58.1543 201.662 50.5859 199.27 45.1172 194.484C39.6484 189.602 36.9141 182.668 36.9141 173.684Z" fill="white" fill-opacity="0.15"/>
</svg>
