<svg width="12" height="19" viewBox="0 0 12 19" fill="none" xmlns="http://www.w3.org/2000/svg">
<path d="M3.50391 12.3164V11.4492C3.50391 10.6992 3.66406 10.0469 3.98438 9.49219C4.30469 8.9375 4.89062 8.34766 5.74219 7.72266C6.5625 7.13672 7.10156 6.66016 7.35938 6.29297C7.625 5.92578 7.75781 5.51562 7.75781 5.0625C7.75781 4.55469 7.57031 4.16797 7.19531 3.90234C6.82031 3.63672 6.29688 3.50391 5.625 3.50391C4.45312 3.50391 3.11719 3.88672 1.61719 4.65234L0.339844 2.08594C2.08203 1.10938 3.92969 0.621094 5.88281 0.621094C7.49219 0.621094 8.76953 1.00781 9.71484 1.78125C10.668 2.55469 11.1445 3.58594 11.1445 4.875C11.1445 5.73438 10.9492 6.47656 10.5586 7.10156C10.168 7.72656 9.42578 8.42969 8.33203 9.21094C7.58203 9.76562 7.10547 10.1875 6.90234 10.4766C6.70703 10.7656 6.60938 11.1445 6.60938 11.6133V12.3164H3.50391ZM3.12891 16.3242C3.12891 15.668 3.30469 15.1719 3.65625 14.8359C4.00781 14.5 4.51953 14.332 5.19141 14.332C5.83984 14.332 6.33984 14.5039 6.69141 14.8477C7.05078 15.1914 7.23047 15.6836 7.23047 16.3242C7.23047 16.9414 7.05078 17.4297 6.69141 17.7891C6.33203 18.1406 5.83203 18.3164 5.19141 18.3164C4.53516 18.3164 4.02734 18.1445 3.66797 17.8008C3.30859 17.4492 3.12891 16.957 3.12891 16.3242Z" fill="white"/>
</svg>
