<svg width="56" height="44" viewBox="0 0 56 44" fill="none" xmlns="http://www.w3.org/2000/svg">
<path d="M29.0391 22.2979C29.0391 29.529 27.8496 34.8815 25.4707 38.3555C23.1107 41.8294 19.4668 43.5664 14.5391 43.5664C9.76237 43.5664 6.15625 41.7728 3.7207 38.1855C1.30404 34.5983 0.0957031 29.3024 0.0957031 22.2979C0.0957031 14.9912 1.27572 9.61035 3.63574 6.15527C5.99577 2.68132 9.63021 0.944336 14.5391 0.944336C19.3158 0.944336 22.9219 2.75684 25.3574 6.38184C27.8118 10.0068 29.0391 15.3122 29.0391 22.2979ZM8.79004 22.2979C8.79004 27.3766 9.22428 31.0205 10.0928 33.2295C10.9801 35.4196 12.4622 36.5146 14.5391 36.5146C16.5781 36.5146 18.0508 35.4007 18.957 33.1729C19.8633 30.945 20.3164 27.32 20.3164 22.2979C20.3164 17.2191 19.8538 13.5752 18.9287 11.3662C18.0225 9.13835 16.5592 8.02441 14.5391 8.02441C12.4811 8.02441 11.0085 9.13835 10.1211 11.3662C9.23372 13.5752 8.79004 17.2191 8.79004 22.2979ZM55.0938 43H46.3428V19.041L46.4277 15.1045L46.5693 10.7998C45.1156 12.2536 44.1055 13.207 43.5391 13.6602L38.7812 17.4834L34.5615 12.2158L47.9004 1.5957H55.0938V43Z" fill="#FBECE1"/>
</svg>
