<svg width="63" height="44" viewBox="0 0 63 44" fill="none" xmlns="http://www.w3.org/2000/svg">
<path d="M29.0391 22.2979C29.0391 29.529 27.8496 34.8815 25.4707 38.3555C23.1107 41.8294 19.4668 43.5664 14.5391 43.5664C9.76237 43.5664 6.15625 41.7728 3.7207 38.1855C1.30404 34.5983 0.0957031 29.3024 0.0957031 22.2979C0.0957031 14.9912 1.27572 9.61035 3.63574 6.15527C5.99577 2.68132 9.63021 0.944336 14.5391 0.944336C19.3158 0.944336 22.9219 2.75684 25.3574 6.38184C27.8118 10.0068 29.0391 15.3122 29.0391 22.2979ZM8.79004 22.2979C8.79004 27.3766 9.22428 31.0205 10.0928 33.2295C10.9801 35.4196 12.4622 36.5146 14.5391 36.5146C16.5781 36.5146 18.0508 35.4007 18.957 33.1729C19.8633 30.945 20.3164 27.32 20.3164 22.2979C20.3164 17.2191 19.8538 13.5752 18.9287 11.3662C18.0225 9.13835 16.5592 8.02441 14.5391 8.02441C12.4811 8.02441 11.0085 9.13835 10.1211 11.3662C9.23372 13.5752 8.79004 17.2191 8.79004 22.2979ZM62.4004 43H33.457V36.9111L43.8506 26.4043C46.9281 23.2513 48.9388 21.0706 49.8828 19.8623C50.8268 18.6351 51.5065 17.5023 51.9219 16.4639C52.3372 15.4255 52.5449 14.3493 52.5449 13.2354C52.5449 11.5739 52.0824 10.3372 51.1572 9.52539C50.251 8.71354 49.0332 8.30762 47.5039 8.30762C45.8991 8.30762 44.3415 8.67578 42.8311 9.41211C41.3206 10.1484 39.7441 11.1963 38.1016 12.5557L33.3438 6.91992C35.3828 5.18294 37.0726 3.95573 38.4131 3.23828C39.7536 2.52083 41.2168 1.97331 42.8027 1.5957C44.3887 1.19922 46.1634 1.00098 48.127 1.00098C50.7135 1.00098 52.998 1.47298 54.9805 2.41699C56.9629 3.361 58.5016 4.68262 59.5967 6.38184C60.6917 8.08105 61.2393 10.0257 61.2393 12.2158C61.2393 14.1227 60.8994 15.9163 60.2197 17.5967C59.5589 19.2581 58.5205 20.9668 57.1045 22.7227C55.7074 24.4785 53.234 26.9801 49.6846 30.2275L44.3604 35.2402V35.6367H62.4004V43Z" fill="#FBECE1"/>
</svg>
