<svg width="24" height="26" viewBox="0 0 24 26" fill="none" xmlns="http://www.w3.org/2000/svg">
<path d="M11.9999 6.71098C8.59271 6.71098 5.8445 9.51645 5.8445 12.9946C5.8445 16.4727 8.59271 19.2782 11.9999 19.2782C15.407 19.2782 18.1552 16.4727 18.1552 12.9946C18.1552 9.51645 15.407 6.71098 11.9999 6.71098ZM11.9999 17.0797C9.79807 17.0797 7.99807 15.2477 7.99807 12.9946C7.99807 10.7415 9.79271 8.90942 11.9999 8.90942C14.207 8.90942 16.0016 10.7415 16.0016 12.9946C16.0016 15.2477 14.2016 17.0797 11.9999 17.0797ZM19.8427 6.45395C19.8427 7.2688 19.1999 7.91958 18.407 7.91958C17.6088 7.91958 16.9713 7.26333 16.9713 6.45395C16.9713 5.64458 17.6141 4.98833 18.407 4.98833C19.1999 4.98833 19.8427 5.64458 19.8427 6.45395ZM23.9195 7.94145C23.8284 5.97817 23.3891 4.23911 21.9802 2.8063C20.5766 1.37349 18.8731 0.925049 16.9499 0.826611C14.9677 0.711768 9.02664 0.711768 7.0445 0.826611C5.12664 0.91958 3.42307 1.36802 2.01414 2.80083C0.605211 4.23364 0.171282 5.9727 0.0748535 7.93598C-0.0376465 9.95942 -0.0376465 16.0243 0.0748535 18.0477C0.165925 20.011 0.605211 21.75 2.01414 23.1829C3.42307 24.6157 5.12128 25.0641 7.0445 25.1625C9.02664 25.2774 14.9677 25.2774 16.9499 25.1625C18.8731 25.0696 20.5766 24.6211 21.9802 23.1829C23.3838 21.75 23.8231 20.011 23.9195 18.0477C24.032 16.0243 24.032 9.96489 23.9195 7.94145ZM21.3588 20.2188C20.9409 21.2907 20.132 22.1164 19.0766 22.5485C17.4963 23.1883 13.7463 23.0407 11.9999 23.0407C10.2534 23.0407 6.49807 23.1829 4.92307 22.5485C3.87307 22.1219 3.06414 21.2961 2.64093 20.2188C2.01414 18.6055 2.15878 14.7774 2.15878 12.9946C2.15878 11.2118 2.0195 7.37817 2.64093 5.77036C3.05878 4.69848 3.86771 3.8727 4.92307 3.44067C6.50342 2.80083 10.2534 2.94849 11.9999 2.94849C13.7463 2.94849 17.5016 2.8063 19.0766 3.44067C20.1266 3.86723 20.9356 4.69302 21.3588 5.77036C21.9856 7.38364 21.8409 11.2118 21.8409 12.9946C21.8409 14.7774 21.9856 18.611 21.3588 20.2188Z" fill="#EE4023"/>
</svg>
