<svg width="108" height="163" viewBox="0 0 108 163" fill="none" xmlns="http://www.w3.org/2000/svg">
<path d="M31.6895 104.57V95.332C31.6895 88.3138 33.1217 82.4056 35.9863 77.6074C38.8509 72.7376 43.9355 68.0111 51.2402 63.4277C57.041 59.7754 61.1947 56.4811 63.7012 53.5449C66.2793 50.6087 67.5684 47.2428 67.5684 43.4473C67.5684 40.4395 66.2077 38.0762 63.4863 36.3574C60.765 34.5671 57.2201 33.6719 52.8516 33.6719C42.0378 33.6719 29.3978 37.5033 14.9316 45.166L0 15.9473C17.832 5.77799 36.4518 0.693359 55.8594 0.693359C71.8294 0.693359 84.362 4.20247 93.457 11.2207C102.552 18.2389 107.1 27.7995 107.1 39.9023C107.1 48.5677 105.059 56.0872 100.977 62.4609C96.9661 68.763 90.5208 74.7428 81.6406 80.4004C74.1211 85.2702 69.3945 88.8509 67.4609 91.1426C65.599 93.3626 64.668 96.0124 64.668 99.0918V104.57H31.6895ZM27.0703 142.168C27.0703 135.579 28.9681 130.495 32.7637 126.914C36.6309 123.333 42.2884 121.543 49.7363 121.543C56.8978 121.543 62.3763 123.369 66.1719 127.021C70.0391 130.602 71.9727 135.651 71.9727 142.168C71.9727 148.685 69.9674 153.734 65.957 157.314C62.0182 160.895 56.6113 162.686 49.7363 162.686C42.6465 162.686 37.0964 160.931 33.0859 157.422C29.0755 153.841 27.0703 148.757 27.0703 142.168Z" fill="white" fill-opacity="0.15"/>
</svg>
