<svg width="16" height="25" viewBox="0 0 16 25" fill="none" xmlns="http://www.w3.org/2000/svg">
<path fill-rule="evenodd" clip-rule="evenodd" d="M5.49553 0.453762L7.77309 6.63092C7.8806 6.91282 7.7646 7.2412 7.50997 7.37131L5.82373 8.23871C5.86899 11.3954 7.56938 15.59 10.144 17.2442L11.7652 16.194C12.0057 16.0299 12.3226 16.1042 12.481 16.3644L15.8676 21.9003C15.9921 22.1048 15.9893 22.3836 15.8422 22.585C13.409 25.9276 10.3194 25.3854 7.49582 22.9195C3.71592 19.6203 0.445287 12.7864 0.0774821 7.50761C-0.196957 3.54544 1.11016 0.425881 4.94099 0.0944087C5.17299 0.06343 5.40499 0.205932 5.49553 0.453762Z" fill="#F75539"/>
</svg>
