<svg width="28" height="16" viewBox="0 0 28 16" fill="none" xmlns="http://www.w3.org/2000/svg">
<path d="M26.4929 1.51719C26.6728 0.93125 26.4929 0.5 25.6277 0.5H22.7645C22.0353 0.5 21.6999 0.870312 21.52 1.28281C21.52 1.28281 20.0617 4.70937 18.0006 6.93125C17.3346 7.57344 17.0284 7.77969 16.6638 7.77969C16.4839 7.77969 16.2068 7.57344 16.2068 6.9875V1.51719C16.2068 0.814062 16.0027 0.5 15.3999 0.5H10.8985C10.4416 0.5 10.1693 0.828125 10.1693 1.13281C10.1693 1.79844 11.1999 1.95312 11.3068 3.82812V7.89688C11.3068 8.7875 11.1416 8.95156 10.777 8.95156C9.80475 8.95156 7.44225 5.51094 6.04225 1.57344C5.7603 0.809375 5.48322 0.5 4.74919 0.5H1.886C1.06933 0.5 0.904053 0.870312 0.904053 1.28281C0.904053 2.01406 1.87627 5.64688 5.42975 10.4469C7.79711 13.7234 11.1318 15.5 14.1652 15.5C15.9881 15.5 16.2117 15.1063 16.2117 14.4266C16.2117 11.2953 16.0464 11 16.9603 11C17.3832 11 18.1124 11.2063 19.8138 12.7859C21.7582 14.6609 22.0791 15.5 23.1679 15.5H26.0311C26.8478 15.5 27.261 15.1062 27.0228 14.3281C26.4784 12.6922 22.7985 9.32656 22.6332 9.10156C22.2103 8.57656 22.3318 8.34219 22.6332 7.87344C22.6381 7.86875 26.1332 3.125 26.4929 1.51719Z" fill="#F05A22"/>
</svg>
